<svg width="34" height="34" viewBox="0 0 34 34" fill="none" xmlns="http://www.w3.org/2000/svg">
<g clip-path="url(#clip0_2186_2521)">
<path d="M15.2481 13.9657C14.5008 14.3972 13.9555 15.1078 13.7322 15.9413C13.5088 16.7748 13.6258 17.6629 14.0572 18.4102C14.4887 19.1575 15.1993 19.7028 16.0328 19.9262C16.8663 20.1495 17.7544 20.0326 18.5017 19.6011C19.249 19.1697 19.7943 18.459 20.0177 17.6255C20.241 16.792 20.1241 15.9039 19.6926 15.1566C19.2612 14.4093 18.5505 13.864 17.717 13.6407C16.8835 13.4174 15.9954 13.5343 15.2481 13.9657Z" fill="white" fill-opacity="0.9"/>
<path d="M14.9984 13.5326C15.8605 13.0349 16.8854 12.9001 17.8469 13.1577C18.8083 13.4154 19.6278 14.0451 20.1255 14.9071C20.6231 15.7692 20.7588 16.7936 20.5012 17.7551C20.2435 18.7166 19.6138 19.5359 18.7518 20.0337C17.8898 20.5314 16.8653 20.6669 15.9038 20.4094C14.9423 20.1517 14.1221 19.5225 13.6244 18.6605C13.1266 17.7984 12.9918 16.7736 13.2495 15.812C13.5072 14.8504 14.1362 14.0303 14.9984 13.5326Z" stroke="black" stroke-opacity="0.1"/>
<path fill-rule="evenodd" clip-rule="evenodd" d="M14.3357 7.07321C12.7558 7.8756 11.2202 8.76221 9.73536 9.72921C9.34048 9.98879 9.01445 10.3405 8.78388 10.753C8.55332 11.1655 8.42552 11.6275 8.41129 12.0998L8.35691 13.6497C8.34733 13.8771 8.28809 14.0997 8.18335 14.3018C8.07861 14.5039 7.93092 14.6806 7.75063 14.8195C7.44471 15.0597 7.14165 15.3028 6.84283 15.5492C5.72218 16.4722 5.48576 18.0567 6.19376 19.283L10.4068 26.5801C10.8046 27.2692 11.4598 27.7719 12.2284 27.9779C12.9969 28.1838 13.8158 28.076 14.5048 27.6782L27.4952 20.1782C28.1843 19.7804 28.6871 19.1251 28.893 18.3566C29.0989 17.588 28.9911 16.7692 28.5933 16.0801L24.3803 8.78297C23.6723 7.55668 22.1819 6.96918 20.8222 7.4782C20.4594 7.61378 20.0973 7.75468 19.7361 7.90091C19.2999 8.07539 18.8191 8.05272 18.4198 7.84104L17.0503 7.11098C16.213 6.66483 15.1991 6.63474 14.3357 7.07321ZM11.8039 15.4247C11.4435 16.7696 11.6322 18.2026 12.3284 19.4085C13.0246 20.6143 14.1713 21.4942 15.5162 21.8546C16.8612 22.215 18.2942 22.0263 19.5 21.3301C20.7059 20.6339 21.5858 19.4872 21.9461 18.1423C22.3065 16.7973 22.1178 15.3643 21.4217 14.1585C20.7255 12.9526 19.5788 12.0727 18.2338 11.7124C16.8889 11.352 15.4559 11.5406 14.25 12.2368C13.0442 12.933 12.1643 14.0797 11.8039 15.4247ZM22.0622 11.7679C22.5405 11.4917 22.7044 10.8802 22.4282 10.4019C22.1521 9.92357 21.5405 9.7597 21.0622 10.0358C20.5839 10.312 20.42 10.9236 20.6962 11.4019C20.9723 11.8802 21.5839 12.044 22.0622 11.7679Z" fill="white" fill-opacity="0.9"/>
<path d="M9.4628 9.31036C10.9625 8.33367 12.5135 7.43818 14.1092 6.62774C15.1235 6.1127 16.3096 6.14977 17.2851 6.66944L18.6537 7.39932C18.9183 7.53958 19.2453 7.55845 19.5502 7.43652L19.5493 7.437C19.9144 7.28927 20.2802 7.14675 20.6468 7.00974L20.9481 6.91247C22.4609 6.5004 24.0408 7.19495 24.8133 8.53292L29.0262 15.8299C29.4903 16.6338 29.6162 17.5898 29.3759 18.4865C29.1356 19.3829 28.5488 20.1469 27.7451 20.6109L14.7547 28.1109C13.9509 28.575 12.9959 28.7012 12.0994 28.4611C11.2028 28.2208 10.4377 27.6338 9.9736 26.8299L5.76071 19.5329C4.93678 18.1058 5.20613 16.2492 6.52484 15.1631L7.44226 14.4259L7.44515 14.4231C7.56763 14.3287 7.66835 14.2089 7.7395 14.0716C7.81064 13.9343 7.85033 13.7829 7.85684 13.6284L7.91149 12.0824C7.9285 11.5306 8.07801 10.991 8.34733 10.5092C8.61674 10.0272 8.99854 9.61542 9.46111 9.31133L9.4628 9.31036ZM14.4999 12.6696C13.4089 13.2995 12.6133 14.3372 12.2872 15.554C11.9612 16.7707 12.1315 18.0673 12.7613 19.1582C13.3912 20.2492 14.4293 21.0457 15.6461 21.3717C16.8628 21.6976 18.159 21.5267 19.2499 20.8968C20.3407 20.267 21.1369 19.23 21.463 18.0133C21.7891 16.7965 21.6184 15.4992 20.9885 14.4082C20.3586 13.3173 19.3209 12.5216 18.1041 12.1956C16.8873 11.8696 15.5908 12.0397 14.4999 12.6696ZM21.3121 10.4686C21.073 10.6067 20.9911 10.9125 21.129 11.1517C21.2671 11.3908 21.5729 11.4727 21.8121 11.3347C22.0512 11.1966 22.1331 10.8908 21.9951 10.6517C21.8569 10.4127 21.5511 10.3306 21.3121 10.4686Z" stroke="black" stroke-opacity="0.1"/>
</g>
<defs>
<clipPath id="clip0_2186_2521">
<rect width="24" height="24" fill="white" transform="translate(0.607666 12.6077) rotate(-30)"/>
</clipPath>
</defs>
</svg>
