<svg width="34" height="33" viewBox="0 0 34 33" fill="none" xmlns="http://www.w3.org/2000/svg">
<g clip-path="url(#clip0_2186_2528)">
<path d="M19.2264 7.5047C18.7957 7.25606 18.2839 7.18868 17.8036 7.31739C17.3232 7.4461 16.9137 7.76034 16.6651 8.191C16.4164 8.62166 16.349 9.13345 16.4777 9.61379C16.6064 10.0941 16.9207 10.5037 17.3514 10.7523L18.9752 11.6898L16.7252 15.5869L9.9052 11.6494C9.47455 11.4008 9.1603 10.9912 9.03159 10.5109C8.90289 10.0306 8.97026 9.51877 9.21891 9.08812L9.59391 8.4386C10.1119 7.54139 11.2589 7.2348 12.1552 7.7523L14.9204 9.3488C14.8605 8.48022 15.1385 7.62209 15.6965 6.95371C16.2544 6.28533 17.049 5.85841 17.9143 5.76217C18.7796 5.66593 19.6487 5.9078 20.3398 6.43726C21.031 6.96671 21.4908 7.74278 21.6232 8.60329C22.4346 8.28769 23.3366 8.29786 24.1407 8.63169C24.9448 8.96552 25.5888 9.59718 25.9381 10.3947C26.2874 11.1922 26.315 12.0938 26.0151 12.9112C25.7152 13.7285 25.1111 14.3984 24.3289 14.7808L27.7437 16.7523C28.64 17.2698 28.9475 18.4173 28.43 19.3136L28.055 19.9631C27.537 20.8603 26.39 21.1669 25.4937 20.6494L18.0242 16.3369L20.2742 12.4398L21.898 13.3773C22.2191 13.5627 22.5881 13.6487 22.9581 13.6245C23.3282 13.6002 23.6827 13.4668 23.9769 13.241C24.2711 13.0153 24.4918 12.7074 24.611 12.3562C24.7302 12.005 24.7426 11.6264 24.6466 11.2682C24.5506 10.91 24.3506 10.5883 24.0718 10.3438C23.7929 10.0993 23.4479 9.94295 23.0802 9.89454C22.7126 9.84614 22.3388 9.90785 22.0062 10.0719C21.6736 10.2359 21.3971 10.4948 21.2117 10.816L20.2742 12.4398L18.9752 11.6898L19.9127 10.066C20.4307 9.1688 20.1227 8.0222 19.2264 7.5047ZM15.9752 16.886L8.83044 12.761L5.45544 18.6066C5.15708 19.1234 5.07622 19.7376 5.23067 20.314C5.38511 20.8904 5.76221 21.3818 6.279 21.6802L11.4752 24.6802L15.9752 16.886ZM17.2742 17.636L12.7742 25.4302L18.6199 28.8052C19.1367 29.1035 19.7508 29.1844 20.3272 29.03C20.9036 28.8755 21.3951 28.4984 21.6934 27.9816L25.0684 22.136L17.2742 17.636Z" fill="white" fill-opacity="0.9"/>
<path d="M16.6581 16.703L11.6581 25.3632L6.02897 22.1132C5.39735 21.7486 4.93673 21.1478 4.74796 20.4434C4.55919 19.7389 4.65775 18.9883 5.0224 18.3567L8.6474 12.078L16.6581 16.703ZM25.7514 21.953L22.1264 28.2317C21.7617 28.8633 21.161 29.3239 20.4565 29.5127C19.752 29.7014 19.0014 29.6029 18.3698 29.2382L12.0911 25.6132L17.0911 16.953L25.7514 21.953ZM24.3325 8.17045C25.2555 8.55375 25.9949 9.27849 26.396 10.194C26.797 11.1097 26.8289 12.145 26.4846 13.0834C26.2422 13.7443 25.8256 14.3201 25.2873 14.7568L27.9936 16.3193C29.1291 16.9749 29.5185 18.4282 28.8629 19.5637L28.4879 20.2132C27.8318 21.3496 26.3789 21.738 25.2436 21.0825L17.3411 16.52L19.5911 12.6229L19.1581 12.3729L16.9081 16.27L9.65517 12.0825C9.10968 11.7675 8.71121 11.2489 8.54817 10.6405C8.38515 10.0321 8.47094 9.38366 8.78586 8.83817L9.16086 8.18865C9.81702 7.05215 11.2698 6.66386 12.4052 7.31934L14.462 8.50684C14.5711 7.8223 14.8615 7.17363 15.3125 6.63325C15.9531 5.86585 16.8657 5.3758 17.8592 5.2653C18.8526 5.15484 19.8499 5.4328 20.6434 6.04057C21.2846 6.5318 21.7523 7.20791 21.9884 7.97069C22.7671 7.7938 23.5864 7.86072 24.3325 8.17045ZM23.7423 10.7199C23.5379 10.5406 23.2845 10.4256 23.0149 10.3901C22.7453 10.3546 22.4708 10.4002 22.2269 10.5204C21.9832 10.6407 21.7806 10.8307 21.6447 11.0661L20.9572 12.2568L22.148 12.9443C22.3834 13.0803 22.6538 13.1434 22.925 13.1257C23.1964 13.108 23.4568 13.0102 23.6726 12.8447C23.8883 12.6791 24.0503 12.4528 24.1377 12.1953C24.225 11.9379 24.2345 11.6601 24.1641 11.3975C24.0938 11.135 23.9467 10.8992 23.7423 10.7199ZM18.9763 7.93777C18.6605 7.75544 18.2851 7.7055 17.9328 7.79989C17.5806 7.89428 17.2804 8.12526 17.098 8.44106C16.9157 8.75686 16.8658 9.13235 16.9601 9.48458C17.0545 9.8368 17.2855 10.137 17.6013 10.3193L18.7921 11.0068L19.4796 9.81606C19.8594 9.15815 19.6337 8.31729 18.9763 7.93777Z" stroke="black" stroke-opacity="0.1"/>
</g>
<defs>
<clipPath id="clip0_2186_2528">
<rect width="24" height="24" fill="white" transform="translate(12.6074 0.219116) rotate(30)"/>
</clipPath>
</defs>
</svg>
