<svg width="34" height="35" viewBox="0 0 34 35" fill="none" xmlns="http://www.w3.org/2000/svg">
<path fill-rule="evenodd" clip-rule="evenodd" d="M13.5569 25.9617L6.32946 20.3156C4.80617 19.1256 4.53599 16.9261 5.72598 15.4028C6.91598 13.8795 9.11552 13.6093 10.6388 14.7993L17.8662 20.4454C18.8603 20.4283 19.8664 20.739 20.7109 21.3987C22.6694 22.9287 23.0168 25.7567 21.4868 27.7152C19.9568 29.6737 17.1288 30.0211 15.1703 28.4911C14.3258 27.8314 13.7809 26.9303 13.5569 25.9617ZM13.6728 23.5143C13.831 23.0425 14.0707 22.5891 14.3944 22.1746C14.7182 21.7601 15.1002 21.4178 15.5197 21.1502L9.40756 16.3754C8.75473 15.8654 7.81207 15.9812 7.30207 16.634C6.79207 17.2869 6.90786 18.2295 7.5607 18.7395L13.6728 23.5143Z" fill="url(#paint0_linear_2186_2515)"/>
<path fill-rule="evenodd" clip-rule="evenodd" d="M13.2737 13.0508C14.1182 13.7105 15.1244 14.0212 16.1184 14.0042L23.3458 19.6502C24.8691 20.8402 27.0686 20.57 28.2586 19.0467C29.4486 17.5234 29.1784 15.3239 27.6552 14.1339L20.4278 8.48786C20.2038 7.51922 19.6588 6.61816 18.8143 5.95843C16.8558 4.42843 14.0278 4.77581 12.4978 6.73432C10.9678 8.69283 11.3152 11.5208 13.2737 13.0508ZM19.5902 12.2749C19.2664 12.6894 18.8845 13.0317 18.465 13.2993L24.5771 18.0741C25.2299 18.5841 26.1726 18.4683 26.6826 17.8155C27.1925 17.1626 27.0768 16.22 26.4239 15.71L20.3118 10.9352C20.1537 11.407 19.914 11.8604 19.5902 12.2749Z" fill="url(#paint1_linear_2186_2515)"/>
<path d="M13.5815 12.6568C14.3325 13.2434 15.2259 13.519 16.1095 13.5039L16.2865 13.501L23.6536 19.2562C24.9593 20.2762 26.8447 20.0446 27.8646 18.7389C28.8846 17.4333 28.653 15.5479 27.3474 14.5279L19.9803 8.77273L19.9403 8.60023C19.7411 7.73922 19.2574 6.93908 18.5065 6.35245C16.7656 4.99245 14.2518 5.30124 12.8918 7.04213C11.5318 8.78303 11.8406 11.2968 13.5815 12.6568ZM18.1962 12.8775C18.5685 12.64 18.9079 12.3361 19.1962 11.9671C19.4845 11.5981 19.6971 11.1952 19.8375 10.7766L20.0626 10.1061L26.7318 15.316C27.6022 15.996 27.7566 17.2529 27.0766 18.1233C26.3966 18.9938 25.1397 19.1481 24.2693 18.4682L17.6002 13.2582L18.1962 12.8775ZM15.4782 28.0971C17.219 29.4571 19.7328 29.1483 21.0928 27.4074C22.4528 25.6665 22.144 23.1527 20.4031 21.7927C19.6522 21.2061 18.7588 20.9305 17.8752 20.9456L17.6981 20.9485L10.331 15.1933C9.02532 14.1733 7.14 14.4049 6.12 15.7106C5.10001 17.0163 5.3316 18.9016 6.63727 19.9216L14.0044 25.6768L14.0444 25.8493C14.2436 26.7103 14.7272 27.5104 15.4782 28.0971ZM7.25289 19.1335C6.38244 18.4535 6.22805 17.1967 6.90805 16.3262C7.58804 15.4558 8.84493 15.3014 9.71537 15.9814L16.3845 21.1913L15.7884 21.572C15.4162 21.8095 15.0768 22.1134 14.7885 22.4824C14.5002 22.8515 14.2875 23.2543 14.1472 23.673L13.922 24.3435L7.25289 19.1335Z" stroke="white" stroke-opacity="0.2"/>
<defs>
<linearGradient id="paint0_linear_2186_2515" x1="-2.69209" y1="20.9525" x2="35.0202" y2="10.7536" gradientUnits="userSpaceOnUse">
<stop stop-color="#F5F1FF"/>
<stop offset="1" stop-color="#6633EE"/>
</linearGradient>
<linearGradient id="paint1_linear_2186_2515" x1="-2.69209" y1="20.9525" x2="35.0202" y2="10.7536" gradientUnits="userSpaceOnUse">
<stop stop-color="#F5F1FF"/>
<stop offset="1" stop-color="#6633EE"/>
</linearGradient>
</defs>
</svg>
